<svg xmlns="http://www.w3.org/2000/svg" width="35" height="35" viewBox="0 0 35 35" fill="none">
<path d="M18.8709 32.0834H16.1147C15.4649 32.0834 14.8417 31.8253 14.3823 31.3658C13.9228 30.9064 13.6647 30.2832 13.6647 29.6334V28.0438C13.6568 27.9502 13.6224 27.8607 13.5656 27.7858C13.5088 27.7109 13.4319 27.6538 13.3438 27.6209C13.2546 27.5637 13.1508 27.5334 13.0449 27.5334C12.9389 27.5334 12.8351 27.5637 12.7459 27.6209L11.6667 28.7876C11.4404 29.0155 11.1711 29.1965 10.8746 29.3199C10.578 29.4434 10.2599 29.5069 9.93862 29.5069C9.61736 29.5069 9.29928 29.4434 9.00269 29.3199C8.7061 29.1965 8.43687 29.0155 8.2105 28.7876L6.21258 26.8334C5.98132 26.6075 5.79765 26.3375 5.67241 26.0395C5.54718 25.7414 5.48292 25.4213 5.48341 25.098C5.48435 24.4367 5.74641 23.8025 6.21258 23.3334L7.29175 22.2542C7.34385 22.1739 7.37157 22.0802 7.37157 21.9845C7.37157 21.8887 7.34385 21.795 7.29175 21.7147C7.20425 21.4959 7.05841 21.3355 6.85425 21.3355H5.36675C4.71563 21.3316 4.09249 21.0703 3.63344 20.6085C3.17439 20.1467 2.91674 19.522 2.91675 18.8709V16.1147C2.91675 15.4649 3.17487 14.8417 3.63434 14.3823C4.0938 13.9228 4.71697 13.6647 5.36675 13.6647H6.95633C7.04998 13.6568 7.13946 13.6224 7.21434 13.5656C7.28922 13.5088 7.34641 13.4319 7.37925 13.3438C7.43642 13.2546 7.4668 13.1508 7.4668 13.0449C7.4668 12.9389 7.43642 12.8351 7.37925 12.7459L6.21258 11.6667C5.98462 11.4404 5.8037 11.1711 5.68024 10.8746C5.55678 10.578 5.49322 10.2599 5.49322 9.93862C5.49322 9.61736 5.55678 9.29928 5.68024 9.00269C5.8037 8.7061 5.98462 8.43687 6.21258 8.2105L8.16675 6.21258C8.39045 5.98241 8.65795 5.79933 8.95348 5.6741C9.24901 5.54888 9.56661 5.48404 9.88758 5.48341C10.2175 5.48197 10.5445 5.54563 10.8498 5.67075C11.1551 5.79587 11.4327 5.98 11.6667 6.21258L12.7459 7.29175C12.8263 7.34385 12.92 7.37157 13.0157 7.37157C13.1115 7.37157 13.2052 7.34385 13.2855 7.29175C13.5042 7.20425 13.6647 7.05841 13.6647 6.85425V5.36675C13.6685 4.71563 13.9299 4.09249 14.3917 3.63344C14.8534 3.17439 15.4781 2.91674 16.1292 2.91675H18.9584C19.6082 2.91675 20.2314 3.17487 20.6908 3.63434C21.1503 4.0938 21.4084 4.71697 21.4084 5.36675V6.95633C21.4163 7.04998 21.4507 7.13946 21.5075 7.21434C21.5643 7.28922 21.6412 7.34641 21.7292 7.37925C21.8185 7.43642 21.9222 7.4668 22.0282 7.4668C22.1342 7.4668 22.2379 7.43642 22.3272 7.37925L23.3334 6.21258C23.5598 5.98462 23.829 5.8037 24.1256 5.68024C24.4222 5.55678 24.7403 5.49322 25.0615 5.49322C25.3828 5.49322 25.7009 5.55678 25.9975 5.68024C26.2941 5.8037 26.5633 5.98462 26.7897 6.21258L28.7876 8.16675C29.0182 8.39316 29.2014 8.66322 29.3266 8.96116C29.4518 9.25911 29.5164 9.57899 29.5167 9.90216C29.5238 10.2307 29.4626 10.5572 29.3371 10.8609C29.2116 11.1646 29.0245 11.439 28.7876 11.6667L27.7084 12.7459C27.6563 12.8263 27.6286 12.92 27.6286 13.0157C27.6286 13.1115 27.6563 13.2052 27.7084 13.2855C27.7959 13.5042 27.9417 13.6647 28.1459 13.6647H29.7355C30.3687 13.6947 30.966 13.9675 31.4033 14.4265C31.8405 14.8855 32.0841 15.4953 32.0834 16.1292V18.9584C32.0834 19.6082 31.8253 20.2314 31.3658 20.6908C30.9064 21.1503 30.2832 21.4084 29.6334 21.4084H28.0438C27.9502 21.4163 27.8607 21.4507 27.7858 21.5075C27.7109 21.5643 27.6538 21.6412 27.6209 21.7292C27.5688 21.8096 27.5411 21.9033 27.5411 21.999C27.5411 22.0948 27.5688 22.1885 27.6209 22.2688L28.7438 23.3917C28.9718 23.6181 29.1527 23.8873 29.2762 24.1839C29.3996 24.4805 29.4632 24.7986 29.4632 25.1199C29.4632 25.4411 29.3996 25.7592 29.2762 26.0558C29.1527 26.3524 28.9718 26.6216 28.7438 26.848L26.8334 28.7876C26.6097 29.0177 26.3422 29.2008 26.0467 29.3261C25.7511 29.4513 25.4335 29.5161 25.1126 29.5167C24.4614 29.5082 23.839 29.2467 23.3772 28.7876L22.2542 27.7084C22.1739 27.6563 22.0802 27.6286 21.9845 27.6286C21.8887 27.6286 21.795 27.6563 21.7147 27.7084C21.4959 27.7959 21.3355 27.9417 21.3355 28.1459V29.7355C21.3055 30.3687 21.0326 30.966 20.5737 31.4033C20.1147 31.8405 19.5048 32.0841 18.8709 32.0834ZM16.5813 29.1667H18.4188V28.0438C18.425 27.3713 18.6307 26.7158 19.0097 26.1602C19.3887 25.6047 19.9241 25.1741 20.548 24.923C21.1745 24.6492 21.8683 24.5681 22.541 24.6902C23.2137 24.8123 23.8348 25.1319 24.3251 25.6084L25.1126 26.3959L26.3959 25.1126L25.6084 24.3105C25.1349 23.8276 24.8156 23.2149 24.691 22.5502C24.5663 21.8855 24.642 21.1988 24.9084 20.5772C25.1618 19.956 25.5933 19.4237 26.1487 19.0474C26.7041 18.6711 27.3584 18.4676 28.0292 18.4626H29.1667V16.5813H28.0438C27.3713 16.5751 26.7158 16.3695 26.1602 15.9905C25.6047 15.6114 25.1741 15.0761 24.923 14.4522C24.6492 13.8257 24.5681 13.1319 24.6902 12.4592C24.8123 11.7865 25.1319 11.1654 25.6084 10.6751L26.3959 9.88758L25.1126 8.60425L24.3105 9.39175C23.8201 9.83969 23.2119 10.1382 22.5576 10.2521C21.9032 10.366 21.2299 10.2906 20.617 10.0347C20.0041 9.77877 19.4771 9.35308 19.098 8.80771C18.7188 8.26234 18.5035 7.62 18.4772 6.95633V5.83341H16.5813V6.95633C16.5751 7.62884 16.3695 8.28438 15.9905 8.83993C15.6114 9.39549 15.0761 9.82607 14.4522 10.0772C13.8257 10.351 13.1319 10.432 12.4592 10.31C11.7865 10.1879 11.1654 9.86824 10.6751 9.39175L9.88758 8.60425L8.60425 9.88758L9.39175 10.6897C9.83969 11.1801 10.1382 11.7882 10.2521 12.4426C10.366 13.097 10.2906 13.7702 10.0347 14.3831C9.77877 14.9961 9.35308 15.5231 8.80771 15.9022C8.26234 16.2813 7.62 16.4967 6.95633 16.523H5.83341V18.3605H6.95633C7.62884 18.3667 8.28438 18.5723 8.83993 18.9514C9.39549 19.3304 9.82607 19.8658 10.0772 20.4897C10.351 21.1161 10.432 21.8099 10.31 22.4826C10.1879 23.1553 9.86824 23.7764 9.39175 24.2667L8.60425 25.0542L9.88758 26.3376L10.6897 25.5501C11.1801 25.1021 11.7882 24.8036 12.4426 24.6897C13.097 24.5758 13.7702 24.6513 14.3831 24.9072C14.9961 25.1631 15.5231 25.5887 15.9022 26.1341C16.2813 26.6795 16.4967 27.3218 16.523 27.9855L16.5813 29.1667Z" fill="#FAFAFA" fill-opacity="0.7"/>
<path d="M17.4999 22.6041C16.4904 22.6041 15.5036 22.3047 14.6642 21.7439C13.8248 21.183 13.1706 20.3859 12.7843 19.4532C12.398 18.5205 12.2969 17.4943 12.4938 16.5041C12.6908 15.514 13.1769 14.6046 13.8907 13.8907C14.6046 13.1769 15.514 12.6908 16.5041 12.4938C17.4943 12.2969 18.5205 12.398 19.4532 12.7843C20.3859 13.1706 21.183 13.8248 21.7439 14.6642C22.3047 15.5036 22.6041 16.4904 22.6041 17.4999C22.6041 18.8536 22.0663 20.1519 21.1091 21.1091C20.1519 22.0663 18.8536 22.6041 17.4999 22.6041ZM17.4999 15.3124C17.0673 15.3124 16.6443 15.4407 16.2846 15.6811C15.9249 15.9214 15.6445 16.2631 15.4789 16.6628C15.3134 17.0625 15.27 17.5023 15.3545 17.9267C15.4389 18.351 15.6472 18.7408 15.9531 19.0467C16.2591 19.3526 16.6488 19.561 17.0732 19.6454C17.4975 19.7298 17.9373 19.6865 18.337 19.5209C18.7368 19.3553 19.0784 19.075 19.3188 18.7152C19.5591 18.3555 19.6874 17.9326 19.6874 17.4999C19.6874 16.9198 19.457 16.3634 19.0467 15.9531C18.6365 15.5429 18.0801 15.3124 17.4999 15.3124Z" fill="#FAFAFA" fill-opacity="0.7"/>
</svg>